<?xml version="1.0" encoding="utf-8"?>
<!-- Svg Vector Icons : http://www.onlinewebfonts.com/icon -->
<!DOCTYPE svg PUBLIC "-//W3C//DTD SVG 1.1//EN" "http://www.w3.org/Graphics/SVG/1.1/DTD/svg11.dtd">
<svg version="1.1" xmlns="http://www.w3.org/2000/svg" xmlns:xlink="http://www.w3.org/1999/xlink" x="0px" y="0px" viewBox="0 0 1000 1000" enable-background="new 0 0 1000 1000" xml:space="preserve">
<metadata> Svg Vector Icons : http://www.onlinewebfonts.com/icon </metadata>
<g><path d="M270.4,401.2c18.8,0,34.9,6.6,48.1,19.9c13.2,13.3,19.9,29.3,19.9,48.1c0,18.1-6.6,34-19.9,47.6c-13.2,13.6-29.3,20.4-48.1,20.4c-18.8,0-34.9-6.8-48.1-20.4c-13.2-13.6-19.9-29.5-19.9-47.6c0-18.8,6.6-34.9,19.9-48.1C235.6,407.8,251.6,401.2,270.4,401.2L270.4,401.2z M797.6,11c30.7,0,57.9,5.4,81.6,16.2c23.7,10.8,43.8,24.8,60.1,41.8c16.4,17.1,28.9,36.4,37.7,58c8.7,21.6,13.1,42.9,13.1,63.8v534.4c0,16-3.7,31.7-11,47.1c-7.3,15.3-17.1,29.3-29.3,41.8c-12.2,12.6-26.1,22.7-41.8,30.3c-15.7,7.7-31.9,11.5-48.6,11.5V271.5c0-18.1-3.5-35-10.5-50.7c-7-15.7-16.4-29.5-28.2-41.3c-11.8-11.9-25.6-21.3-41.3-28.2c-15.7-7-32.6-10.5-50.7-10.5H140.7c0-15.3,3.5-30.7,10.5-46c7-15.3,16.4-29.3,28.2-41.8c11.9-12.6,25.8-22.7,41.8-30.3c16-7.7,33.1-11.5,51.3-11.5H797.6L797.6,11z M706.6,206.6c31.4,0,53.7,8.5,66.9,25.6c13.2,17.1,19.9,39.9,19.9,68.5v616c0,17.4-7.3,33.8-22,49.2c-14.6,15.3-33.1,23-55.4,23H82.2c-18.8,0-35.6-7.7-50.2-23c-14.6-15.3-22-33.8-22-55.4V283c0-22.3,6.1-40.6,18.3-54.9c12.2-14.3,28.4-21.4,48.6-21.4H706.6L706.6,206.6z M663.7,365.6c0-7.7-2.4-13.9-7.3-18.8c-4.9-4.9-11.2-7.3-18.8-7.3H165.8c-7.7,0-13.9,2.4-18.8,7.3c-4.9,4.9-7.3,11.2-7.3,18.8v233.2c6.3,7.7,12,16.2,17.3,25.6c5.2,9.4,11.7,18.3,19.4,26.7c7.7,8.4,17.8,15.5,30.3,21.4c12.6,5.9,30,8.9,52.3,8.9c32.8,0,59.4-5.2,80-15.7c20.6-10.5,38.7-23.7,54.4-39.7c15.7-16,30.3-33.3,43.9-51.8c13.6-18.5,29.8-35.9,48.6-52.3c18.8-16.4,42.2-30.3,70.1-41.8c27.9-11.5,63.8-18,107.7-19.3V365.6L663.7,365.6z"/></g>
</svg>